<svg width="800" height="239" viewBox="0 0 800 239" fill="none" xmlns="http://www.w3.org/2000/svg">
<path d="M770.37 238.018H29.6296C13.037 238.018 0 224.981 0 208.389V30.6111C0 14.0185 13.037 0.981445 29.6296 0.981445H770.37C786.963 0.981445 800 14.0185 800 30.6111V208.389C800 224.981 786.963 238.018 770.37 238.018Z" fill="black"/>
<path d="M770.37 6.22219C784 6.22219 795.259 17.4814 795.259 31.1111V208.889C795.259 222.518 784 233.778 770.37 233.778H29.6296C16 233.778 4.74074 222.518 4.74074 208.889V31.1111C4.74074 17.4814 16 6.22219 29.6296 6.22219H770.37ZM770.37 1.48145H29.6296C13.037 1.48145 0 15.1111 0 31.1111V208.889C0 225.481 13.037 238.518 29.6296 238.518H770.37C786.963 238.518 800 225.481 800 208.889V31.1111C800 15.1111 786.963 1.48145 770.37 1.48145Z" fill="#A6A6A6"/>
<path d="M280.889 61.9259C280.889 66.6667 279.704 70.8148 276.741 73.7778C273.185 77.3333 269.037 79.1111 263.704 79.1111C258.37 79.1111 254.222 77.3333 250.667 73.7778C247.111 70.2222 245.333 66.0741 245.333 60.7407C245.333 55.4074 247.111 51.2593 250.667 47.7037C254.222 44.1481 258.37 42.3704 263.704 42.3704C266.074 42.3704 268.444 42.963 270.815 44.1481C273.185 45.3333 274.963 46.5185 276.148 48.2963L273.185 51.2592C270.815 48.2963 267.852 47.1111 263.704 47.1111C260.148 47.1111 256.593 48.2963 254.222 51.2592C251.259 53.6296 250.074 57.1852 250.074 61.3333C250.074 65.4815 251.259 69.037 254.222 71.4074C257.185 73.7778 260.148 75.5555 263.704 75.5555C267.852 75.5555 270.815 74.3704 273.778 71.4074C275.556 69.6296 276.741 67.2593 276.741 64.2963H263.704V59.5555H280.889V61.9259ZM308.148 47.1111H292.148V58.3704H306.963V62.5185H292.148V73.7778H308.148V78.5185H287.407V42.963H308.148V47.1111ZM327.704 78.5185H322.963V47.1111H312.889V42.963H337.778V47.1111H327.704V78.5185ZM354.963 78.5185V42.963H359.704V78.5185H354.963ZM379.852 78.5185H375.111V47.1111H365.037V42.963H389.333V47.1111H379.259V78.5185H379.852ZM436.148 73.7778C432.593 77.3333 428.444 79.1111 423.111 79.1111C417.778 79.1111 413.63 77.3333 410.074 73.7778C406.519 70.2222 404.741 66.0741 404.741 60.7407C404.741 55.4074 406.519 51.2593 410.074 47.7037C413.63 44.1481 417.778 42.3704 423.111 42.3704C428.444 42.3704 432.593 44.1481 436.148 47.7037C439.704 51.2593 441.482 55.4074 441.482 60.7407C441.482 66.0741 439.704 70.2222 436.148 73.7778ZM413.63 70.8148C416 73.1852 419.556 74.963 423.111 74.963C426.667 74.963 430.222 73.7778 432.593 70.8148C434.963 68.4444 436.741 64.8889 436.741 60.7407C436.741 56.5926 435.556 53.037 432.593 50.6667C430.222 48.2963 426.667 46.5185 423.111 46.5185C419.556 46.5185 416 47.7037 413.63 50.6667C411.259 53.037 409.482 56.5926 409.482 60.7407C409.482 64.8889 410.667 68.4444 413.63 70.8148ZM448 78.5185V42.963H453.333L470.519 70.8148V42.963H475.259V78.5185H470.519L452.148 49.4815V78.5185H448Z" fill="white" stroke="white" stroke-width="0.2" stroke-miterlimit="10"/>
<path d="M403.556 130.667C389.333 130.667 378.074 141.333 378.074 156.148C378.074 170.37 389.333 181.63 403.556 181.63C417.778 181.63 429.037 170.963 429.037 156.148C429.037 140.741 417.778 130.667 403.556 130.667ZM403.556 170.963C395.852 170.963 389.333 164.444 389.333 155.556C389.333 146.667 395.852 140.148 403.556 140.148C411.259 140.148 417.778 146.074 417.778 155.556C417.778 164.444 411.259 170.963 403.556 170.963ZM348.444 130.667C334.222 130.667 322.963 141.333 322.963 156.148C322.963 170.37 334.222 181.63 348.444 181.63C362.667 181.63 373.926 170.963 373.926 156.148C373.926 140.741 362.667 130.667 348.444 130.667ZM348.444 170.963C340.741 170.963 334.222 164.444 334.222 155.556C334.222 146.667 340.741 140.148 348.444 140.148C356.148 140.148 362.667 146.074 362.667 155.556C362.667 164.444 356.148 170.963 348.444 170.963ZM282.667 138.37V149.037H308.148C307.556 154.963 305.185 159.704 302.222 162.667C298.667 166.222 292.741 170.37 282.667 170.37C266.667 170.37 254.815 157.926 254.815 141.926C254.815 125.926 267.259 113.481 282.667 113.481C290.963 113.481 297.481 117.037 302.222 121.185L309.926 113.481C303.407 107.556 295.111 102.815 283.259 102.815C261.926 102.815 243.556 120.593 243.556 141.926C243.556 163.259 261.926 181.037 283.259 181.037C295.111 181.037 303.407 177.481 310.519 169.778C317.63 162.667 320 152.593 320 144.889C320 142.519 320 140.148 319.407 138.37H282.667ZM551.704 146.667C549.333 140.741 543.407 130.667 530.37 130.667C517.333 130.667 506.667 140.741 506.667 156.148C506.667 170.37 517.333 181.63 531.556 181.63C542.815 181.63 549.926 174.519 552.296 170.37L544 164.444C541.037 168.593 537.481 171.556 531.556 171.556C525.63 171.556 522.074 169.185 519.111 163.852L552.889 149.63L551.704 146.667ZM517.333 154.963C517.333 145.481 525.037 140.148 530.37 140.148C534.519 140.148 538.667 142.519 539.852 145.481L517.333 154.963ZM489.481 179.259H500.741V105.185H489.481V179.259ZM471.704 136C468.741 133.037 464 130.074 458.074 130.074C445.63 130.074 433.778 141.333 433.778 155.556C433.778 169.778 445.037 180.444 458.074 180.444C464 180.444 468.741 177.481 471.111 174.519H471.704V178.074C471.704 187.556 466.37 192.889 458.074 192.889C451.556 192.889 446.815 188.148 445.63 184L436.148 188.148C439.111 194.667 446.222 202.963 458.667 202.963C471.704 202.963 482.37 195.259 482.37 176.889V131.852H471.704V136ZM458.667 170.963C450.963 170.963 444.444 164.444 444.444 155.556C444.444 146.667 450.963 140.148 458.667 140.148C466.37 140.148 472.296 146.667 472.296 155.556C472.296 164.444 466.37 170.963 458.667 170.963ZM603.259 105.185H576.593V179.259H587.852V151.407H603.259C615.704 151.407 627.556 142.519 627.556 128.296C627.556 114.074 615.704 105.185 603.259 105.185ZM603.852 140.741H587.852V115.259H603.852C612.148 115.259 616.889 122.37 616.889 127.704C616.296 134.222 611.556 140.741 603.852 140.741ZM672 130.074C663.704 130.074 655.407 133.63 652.444 141.333L662.519 145.481C664.889 141.333 668.444 140.148 672.593 140.148C678.518 140.148 683.852 143.704 684.444 149.63V150.222C682.667 149.037 677.926 147.259 673.185 147.259C662.518 147.259 651.852 153.185 651.852 163.852C651.852 173.926 660.741 180.444 670.222 180.444C677.926 180.444 681.481 176.889 684.444 173.333H685.037V179.259H695.704V150.815C694.519 137.778 684.444 130.074 672 130.074ZM670.815 170.963C667.259 170.963 661.926 169.185 661.926 164.444C661.926 158.519 668.444 156.741 673.778 156.741C678.518 156.741 680.889 157.926 683.852 159.111C682.667 166.222 676.741 170.963 670.815 170.963ZM733.037 131.852L720.593 163.852H720L706.963 131.852H695.111L714.667 176.889L703.407 201.778H714.667L744.889 131.852H733.037ZM633.481 179.259H644.741V105.185H633.481V179.259Z" fill="white"/>
<path d="M61.6296 45.9259C59.8519 47.7037 59.2593 50.6666 59.2593 54.2222V185.185C59.2593 188.741 60.4445 191.704 62.2222 193.481L62.8148 194.074L136.296 120.593V119.407L61.6296 45.9259Z" fill="url(#paint0_linear_278_26)"/>
<path d="M160 145.481L135.704 121.185V119.407L160 95.1111L160.593 95.7037L189.63 112.296C197.926 117.037 197.926 124.741 189.63 129.481L160 145.481Z" fill="url(#paint1_linear_278_26)"/>
<path d="M160.593 144.889L135.704 120L61.6296 194.074C64.5926 197.037 68.7408 197.037 74.0741 194.667L160.593 144.889Z" fill="url(#paint2_linear_278_26)"/>
<path d="M160.593 95.1111L74.0741 45.9259C68.7408 42.9629 64.5926 43.5555 61.6296 46.5185L135.704 120L160.593 95.1111Z" fill="url(#paint3_linear_278_26)"/>
<path opacity="0.2" d="M160 144.296L74.0741 192.889C69.3333 195.852 65.1852 195.259 62.2222 192.889L61.6296 193.481L62.2222 194.074C65.1852 196.444 69.3333 197.037 74.0741 194.074L160 144.296Z" fill="black"/>
<path opacity="0.12" d="M61.6296 192.889C59.8519 191.111 59.2593 188.148 59.2593 184.593V185.185C59.2593 188.741 60.4445 191.704 62.2222 193.481V192.889H61.6296ZM189.63 127.704L160 144.296L160.593 144.889L189.63 128.296C193.778 125.926 195.556 122.963 195.556 120C195.556 122.963 193.185 125.333 189.63 127.704Z" fill="black"/>
<path opacity="0.25" d="M74.0741 46.5185L189.63 112.296C193.185 114.667 195.556 117.037 195.556 120C195.556 117.037 193.778 114.074 189.63 111.704L74.0741 45.9259C65.7778 41.1852 59.2593 44.7407 59.2593 54.2222V54.8148C59.2593 45.9259 65.7778 41.7778 74.0741 46.5185Z" fill="white"/>
<defs>
<linearGradient id="paint0_linear_278_26" x1="129.185" y1="53.0963" x2="29.7304" y2="152.545" gradientUnits="userSpaceOnUse">
<stop stop-color="#00A0FF"/>
<stop offset="0.007" stop-color="#00A1FF"/>
<stop offset="0.26" stop-color="#00BEFF"/>
<stop offset="0.512" stop-color="#00D2FF"/>
<stop offset="0.76" stop-color="#00DFFF"/>
<stop offset="1" stop-color="#00E3FF"/>
</linearGradient>
<linearGradient id="paint1_linear_278_26" x1="200.498" y1="120.006" x2="57.1082" y2="120.006" gradientUnits="userSpaceOnUse">
<stop stop-color="#FFE000"/>
<stop offset="0.409" stop-color="#FFBD00"/>
<stop offset="0.775" stop-color="#FFA500"/>
<stop offset="1" stop-color="#FF9C00"/>
</linearGradient>
<linearGradient id="paint2_linear_278_26" x1="147.123" y1="133.606" x2="12.2608" y2="268.468" gradientUnits="userSpaceOnUse">
<stop stop-color="#FF3A44"/>
<stop offset="1" stop-color="#C31162"/>
</linearGradient>
<linearGradient id="paint3_linear_278_26" x1="43.2415" y1="2.52443" x2="103.467" y2="62.7496" gradientUnits="userSpaceOnUse">
<stop stop-color="#32A071"/>
<stop offset="0.069" stop-color="#2DA771"/>
<stop offset="0.476" stop-color="#15CF74"/>
<stop offset="0.801" stop-color="#06E775"/>
<stop offset="1" stop-color="#00F076"/>
</linearGradient>
</defs>
</svg>
